<svg width="116" height="30" viewBox="0 0 116 30" fill="none" xmlns="http://www.w3.org/2000/svg">
<mask id="mask0_2253_2229" style="mask-type:alpha" maskUnits="userSpaceOnUse" x="0" y="0" width="116" height="30">
<rect width="116" height="30" fill="#D9D9D9"/>
</mask>
<g mask="url(#mask0_2253_2229)">
<path d="M74.4674 13.3425C74.4674 13.5796 74.6596 13.7803 75.0441 13.9445C75.4468 14.0904 76.051 14.2545 76.8565 14.4369C77.4057 14.5464 77.9092 14.6923 78.3669 14.8747C78.8429 15.0389 79.3097 15.2851 79.7674 15.6134C80.2434 15.9235 80.6096 16.3613 80.8659 16.9268C81.1405 17.474 81.2778 18.1033 81.2778 18.8146C81.2778 20.4015 80.6919 21.5598 79.5203 22.2894C78.3303 23.0373 76.9389 23.4112 75.3461 23.4112C72.2705 23.4112 70.22 22.3259 69.1948 20.1553L73.1767 18.158C73.5246 19.1612 74.2385 19.6628 75.3187 19.6628C76.1425 19.6628 76.5544 19.4166 76.5544 18.9241C76.5544 18.6869 76.3622 18.4954 75.9778 18.3495C75.6116 18.1853 75.0166 18.0029 74.1928 17.8023C73.6436 17.6928 73.1401 17.5469 72.6824 17.3645C72.243 17.1639 71.7853 16.9085 71.3093 16.5984C70.8517 16.2883 70.4947 15.8779 70.2384 15.3672C69.982 14.8382 69.8539 14.2363 69.8539 13.5614C69.8539 12.1022 70.394 10.9713 71.4741 10.1687C72.5543 9.36613 73.8541 8.96484 75.3736 8.96484C78.0648 8.96484 79.9505 10.0228 81.0306 12.1387L77.186 13.8624C76.7833 13.078 76.2157 12.6859 75.4834 12.6859C74.8061 12.6859 74.4674 12.9048 74.4674 13.3425Z" fill="white"/>
<path d="M68.4875 17.857H59.0134C59.4711 18.9697 60.4963 19.526 62.089 19.526C63.0593 19.526 63.8923 19.2068 64.588 18.5684L67.8834 20.8667C66.5469 22.563 64.5789 23.4112 61.9792 23.4112C59.6541 23.4112 57.7868 22.7363 56.3771 21.3865C54.9857 20.0185 54.29 18.2948 54.29 16.2154C54.29 14.1542 54.9766 12.4305 56.3496 11.0442C57.7227 9.65798 59.4711 8.96484 61.5947 8.96484C63.6452 8.96484 65.3386 9.64886 66.6751 11.0169C68.0115 12.3667 68.6797 14.0813 68.6797 16.1607C68.6797 16.7991 68.6157 17.3645 68.4875 17.857ZM58.9584 14.7106H64.231C63.8832 13.4337 63.0227 12.7953 61.6497 12.7953C60.24 12.7953 59.3429 13.4337 58.9584 14.7106Z" fill="white"/>
<path d="M51.9083 7.46025C51.3957 7.97098 50.7824 8.22635 50.0684 8.22635C49.3544 8.22635 48.732 7.97098 48.201 7.46025C47.6884 6.93128 47.4321 6.31111 47.4321 5.59974C47.4321 4.88836 47.6884 4.27731 48.201 3.76658C48.732 3.25585 49.3544 3.00049 50.0684 3.00049C50.7824 3.00049 51.3957 3.25585 51.9083 3.76658C52.4392 4.27731 52.7047 4.88836 52.7047 5.59974C52.7047 6.31111 52.4392 6.93128 51.9083 7.46025ZM52.3477 23.0284H47.7891V9.34813H52.3477V23.0284Z" fill="white"/>
<path d="M41.6654 16.1877L46.4711 23.0278H41.3633L37.4638 17.2001V23.0278H32.9053V3.87549H37.4638V15.0659L41.0063 9.34759H46.2789L41.6654 16.1877Z" fill="white"/>
<path d="M23.568 23.4112C21.5176 23.4112 19.7875 22.7181 18.3778 21.3318C16.9498 19.9455 16.2358 18.2309 16.2358 16.188C16.2358 14.1816 16.9498 12.4761 18.3778 11.0716C19.8241 9.6671 21.5542 8.96484 23.568 8.96484C25.6184 8.96484 27.3485 9.6671 28.7582 11.0716C30.1862 12.4761 30.9001 14.1816 30.9001 16.188C30.9001 18.2309 30.1862 19.9455 28.7582 21.3318C27.3668 22.7181 25.6367 23.4112 23.568 23.4112ZM23.568 19.0335C24.3735 19.0335 25.0326 18.769 25.5452 18.2401C26.0761 17.7111 26.3416 17.0271 26.3416 16.188C26.3416 15.349 26.0761 14.665 25.5452 14.136C25.0326 13.607 24.3735 13.3425 23.568 13.3425C22.7808 13.3425 22.1217 13.6161 21.5908 14.1633C21.0782 14.6923 20.8219 15.3672 20.8219 16.188C20.8219 17.0088 21.0782 17.6928 21.5908 18.2401C22.1217 18.769 22.7808 19.0335 23.568 19.0335Z" fill="white"/>
<path d="M8.45806 8.96484C10.2888 8.96484 11.8175 9.65798 13.0441 11.0442C14.289 12.4305 14.9115 14.1451 14.9115 16.188C14.9115 18.2309 14.289 19.9546 13.0441 21.3592C11.7992 22.7272 10.2705 23.4112 8.45806 23.4112C6.79208 23.4112 5.49225 22.864 4.55857 21.7696V28.5002H0V9.34789H4.55857V10.6065C5.49225 9.51205 6.79208 8.96484 8.45806 8.96484ZM5.35494 18.3495C5.88586 18.8967 6.58154 19.1703 7.44199 19.1703C8.30245 19.1703 8.99813 18.8967 9.52905 18.3495C10.06 17.784 10.3254 17.0636 10.3254 16.188C10.3254 15.3125 10.06 14.592 9.52905 14.0265C8.99813 13.4793 8.30245 13.2057 7.44199 13.2057C6.58154 13.2057 5.88586 13.4793 5.35494 14.0265C4.82402 14.592 4.55857 15.3125 4.55857 16.188C4.55857 17.0636 4.82402 17.784 5.35494 18.3495Z" fill="white"/>
<g filter="url(#filter0_f_2253_2229)">
<path d="M111.632 15.641H113.554V20.1008H111.632V23.0283H106.744V20.1008H98.3135V15.641L104.053 3.87598H109.49L103.696 15.641H106.744V12.1936H111.632V15.641Z" fill="url(#paint0_linear_2253_2229)"/>
</g>
<g filter="url(#filter1_f_2253_2229)">
<path d="M97.158 23.0281H83.702V19.4712L90.073 12.7679C90.7687 12.0201 91.2447 11.4455 91.501 11.0442C91.7756 10.6247 91.9129 10.2143 91.9129 9.81297C91.9129 9.32048 91.7573 8.93743 91.446 8.66383C91.1531 8.37198 90.7412 8.22606 90.2103 8.22606C89.0569 8.22606 88.1965 8.89183 87.6289 10.2234L83.3999 7.87037C84.004 6.46587 84.9011 5.38057 86.0911 4.61447C87.2994 3.84838 88.6542 3.46533 90.1554 3.46533C91.9861 3.46533 93.5514 4.01254 94.8512 5.10696C96.1694 6.18314 96.8284 7.66061 96.8284 9.53936C96.8284 10.5973 96.5813 11.6005 96.087 12.549C95.5927 13.4793 94.8146 14.4916 93.7528 15.586L91.144 18.2947H97.158V23.0281Z" fill="url(#paint1_linear_2253_2229)"/>
</g>
<path d="M111.632 15.641H113.554V20.1008H111.632V23.0283H106.744V20.1008H98.3135V15.641L104.053 3.87598H109.49L103.696 15.641H106.744V12.1936H111.632V15.641Z" fill="url(#paint2_linear_2253_2229)"/>
<path d="M97.158 23.0281H83.702V19.4712L90.073 12.7679C90.7687 12.0201 91.2447 11.4455 91.501 11.0442C91.7756 10.6247 91.9129 10.2143 91.9129 9.81297C91.9129 9.32048 91.7573 8.93743 91.446 8.66383C91.1531 8.37198 90.7412 8.22606 90.2103 8.22606C89.0569 8.22606 88.1965 8.89183 87.6289 10.2234L83.3999 7.87037C84.004 6.46587 84.9011 5.38057 86.0911 4.61447C87.2994 3.84838 88.6542 3.46533 90.1554 3.46533C91.9861 3.46533 93.5514 4.01254 94.8512 5.10696C96.1694 6.18314 96.8284 7.66061 96.8284 9.53936C96.8284 10.5973 96.5813 11.6005 96.087 12.549C95.5927 13.4793 94.8146 14.4916 93.7528 15.586L91.144 18.2947H97.158V23.0281Z" fill="url(#paint3_linear_2253_2229)"/>
<path fill-rule="evenodd" clip-rule="evenodd" d="M111.633 15.641V12.1935H106.744V15.641H103.696L109.491 3.87595H104.053L98.3138 15.641V20.1007H106.744V23.0283H111.633V20.1007H113.555V15.641H111.633ZM111.861 20.3287H113.784V15.413H111.861V11.9655H106.516V15.413H104.063L109.858 3.64795H103.91L98.085 15.5885V20.3287H106.516V23.2563H111.861V20.3287Z" fill="#FFD700"/>
<path fill-rule="evenodd" clip-rule="evenodd" d="M97.3869 23.2566H83.4732V19.3809L89.9052 12.6134C89.9054 12.6131 89.9057 12.6128 89.906 12.6125C90.6 11.8664 91.0636 11.3048 91.3079 10.9222L91.3093 10.9201C91.5657 10.5284 91.6841 10.1607 91.6841 9.81344C91.6841 9.37269 91.5472 9.05729 91.2947 8.83526L91.2893 8.83055L91.2843 8.82552C91.0454 8.58758 90.6984 8.45453 90.2103 8.45453C89.6813 8.45453 89.2279 8.60601 88.8403 8.90593C88.4495 9.20833 88.113 9.6715 87.8396 10.313L87.74 10.5467L83.1084 7.96978L83.1896 7.78102C83.8101 6.33844 84.7356 5.21618 85.9669 4.42343L85.9683 4.42257C87.2151 3.63205 88.6129 3.23779 90.1554 3.23779C92.0352 3.23779 93.6535 3.80097 94.9976 4.93216C96.374 6.05652 97.0573 7.60162 97.0573 9.53983C97.0573 10.6347 96.8012 11.6739 96.2901 12.6546L96.2893 12.6562C95.7815 13.6117 94.9882 14.6413 93.9175 15.7448C93.9174 15.7449 93.9175 15.7448 93.9175 15.7448L91.6808 18.0672H97.3869V23.2566ZM91.144 18.2952L93.7528 15.5865C94.8147 14.4921 95.5927 13.4797 96.087 12.5495C96.5813 11.601 96.8285 10.5978 96.8285 9.53983C96.8285 7.66108 96.1694 6.18361 94.8513 5.10743C93.5514 4.01301 91.9861 3.4658 90.1554 3.4658C88.6542 3.4658 87.2994 3.84884 86.0911 4.61494C84.9011 5.38103 84.0041 6.46633 83.3999 7.87084L87.629 10.2238C87.6595 10.1523 87.6908 10.0827 87.723 10.015C88.2898 8.82268 89.1189 8.22653 90.2103 8.22653C90.7412 8.22653 91.1532 8.37245 91.4461 8.66429C91.7573 8.9379 91.9129 9.32095 91.9129 9.81344C91.9129 10.2147 91.7756 10.6251 91.501 11.0447C91.2447 11.4459 90.7687 12.0205 90.073 12.7684L83.702 19.4717V23.0286H97.158V18.2952H91.144Z" fill="#FFD700"/>
</g>
<defs>
<filter id="filter0_f_2253_2229" x="96.3135" y="1.87598" width="19.241" height="23.1523" filterUnits="userSpaceOnUse" color-interpolation-filters="sRGB">
<feFlood flood-opacity="0" result="BackgroundImageFix"/>
<feBlend mode="normal" in="SourceGraphic" in2="BackgroundImageFix" result="shape"/>
<feGaussianBlur stdDeviation="1" result="effect1_foregroundBlur_2253_2229"/>
</filter>
<filter id="filter1_f_2253_2229" x="81.3999" y="1.46533" width="17.7581" height="23.563" filterUnits="userSpaceOnUse" color-interpolation-filters="sRGB">
<feFlood flood-opacity="0" result="BackgroundImageFix"/>
<feBlend mode="normal" in="SourceGraphic" in2="BackgroundImageFix" result="shape"/>
<feGaussianBlur stdDeviation="1" result="effect1_foregroundBlur_2253_2229"/>
</filter>
<linearGradient id="paint0_linear_2253_2229" x1="98.4576" y1="1.48193" x2="98.4576" y2="23.0283" gradientUnits="userSpaceOnUse">
<stop stop-color="#FEDD5C"/>
<stop offset="1" stop-color="#FFD700"/>
</linearGradient>
<linearGradient id="paint1_linear_2253_2229" x1="98.4578" y1="1.4817" x2="98.4578" y2="23.0281" gradientUnits="userSpaceOnUse">
<stop stop-color="#FFC400"/>
<stop offset="1" stop-color="#FFD700"/>
</linearGradient>
<linearGradient id="paint2_linear_2253_2229" x1="98.4576" y1="1.48193" x2="98.4576" y2="23.0283" gradientUnits="userSpaceOnUse">
<stop stop-color="#FEDD5C"/>
<stop offset="1" stop-color="#FFD700"/>
</linearGradient>
<linearGradient id="paint3_linear_2253_2229" x1="98.4578" y1="1.4817" x2="98.4578" y2="23.0281" gradientUnits="userSpaceOnUse">
<stop stop-color="#FFC400"/>
<stop offset="1" stop-color="#FFD700"/>
</linearGradient>
</defs>
</svg>
